<mxfile host="app.diagrams.net" modified="2020-12-12T18:15:46.200Z" agent="5.0 (Windows NT 10.0; Win64; x64) AppleWebKit/537.36 (KHTML, like Gecko) Chrome/87.0.4280.88 Safari/537.36" etag="tVoLFuB0BQPxkERFiLbA" version="13.9.8" type="github">
  <diagram id="p_iLRapZqrX2e-fhBkAn" name="Page-1">
    <mxGraphModel dx="229" dy="123" grid="1" gridSize="10" guides="1" tooltips="1" connect="1" arrows="1" fold="1" page="1" pageScale="1" pageWidth="850" pageHeight="1100" math="0" shadow="0">
      <root>
        <mxCell id="0" />
        <mxCell id="1" parent="0" />
        <mxCell id="PjvNSQIgc9dSUxO6gESV-1" value="" style="ellipse;whiteSpace=wrap;html=1;aspect=fixed;fillColor=#f5f5f5;fontColor=#333333;" parent="1" vertex="1">
          <mxGeometry x="560" y="320" width="10" height="10" as="geometry" />
        </mxCell>
        <mxCell id="PjvNSQIgc9dSUxO6gESV-2" value="" style="ellipse;whiteSpace=wrap;html=1;aspect=fixed;fontColor=#333333;fillColor=#000000;" parent="1" vertex="1">
          <mxGeometry x="530" y="288" width="10" height="10" as="geometry" />
        </mxCell>
        <mxCell id="PjvNSQIgc9dSUxO6gESV-3" value="" style="ellipse;whiteSpace=wrap;html=1;aspect=fixed;fontColor=#333333;fillColor=#000000;" parent="1" vertex="1">
          <mxGeometry x="530" y="350" width="10" height="10" as="geometry" />
        </mxCell>
        <mxCell id="PjvNSQIgc9dSUxO6gESV-4" value="" style="ellipse;whiteSpace=wrap;html=1;aspect=fixed;fontColor=#333333;fillColor=#000000;" parent="1" vertex="1">
          <mxGeometry x="590" y="288" width="10" height="10" as="geometry" />
        </mxCell>
        <mxCell id="PjvNSQIgc9dSUxO6gESV-6" value="" style="endArrow=none;html=1;exitX=0;exitY=0;exitDx=0;exitDy=0;entryX=1;entryY=1;entryDx=0;entryDy=0;" parent="1" source="PjvNSQIgc9dSUxO6gESV-1" target="PjvNSQIgc9dSUxO6gESV-2" edge="1">
          <mxGeometry width="50" height="50" relative="1" as="geometry">
            <mxPoint x="415" y="330" as="sourcePoint" />
            <mxPoint x="415" y="298" as="targetPoint" />
          </mxGeometry>
        </mxCell>
        <mxCell id="PjvNSQIgc9dSUxO6gESV-7" value="" style="endArrow=none;html=1;exitX=0;exitY=1;exitDx=0;exitDy=0;entryX=1;entryY=0;entryDx=0;entryDy=0;" parent="1" source="PjvNSQIgc9dSUxO6gESV-1" target="PjvNSQIgc9dSUxO6gESV-3" edge="1">
          <mxGeometry width="50" height="50" relative="1" as="geometry">
            <mxPoint x="521.4644660940672" y="328.53553390593265" as="sourcePoint" />
            <mxPoint x="508.53553390593265" y="308.5355339059327" as="targetPoint" />
          </mxGeometry>
        </mxCell>
        <mxCell id="PjvNSQIgc9dSUxO6gESV-9" value="" style="endArrow=none;html=1;exitX=0;exitY=1;exitDx=0;exitDy=0;entryX=1;entryY=0;entryDx=0;entryDy=0;" parent="1" source="PjvNSQIgc9dSUxO6gESV-4" target="PjvNSQIgc9dSUxO6gESV-1" edge="1">
          <mxGeometry width="50" height="50" relative="1" as="geometry">
            <mxPoint x="578.5355339059153" y="338.53553390591526" as="sourcePoint" />
            <mxPoint x="601.4644660940672" y="361.46446609406735" as="targetPoint" />
          </mxGeometry>
        </mxCell>
        <mxCell id="PjvNSQIgc9dSUxO6gESV-10" value="" style="ellipse;whiteSpace=wrap;html=1;aspect=fixed;fontColor=#333333;fillColor=#000000;" parent="1" vertex="1">
          <mxGeometry x="520" y="320" width="10" height="10" as="geometry" />
        </mxCell>
        <mxCell id="PjvNSQIgc9dSUxO6gESV-11" value="" style="ellipse;whiteSpace=wrap;html=1;aspect=fixed;fontColor=#333333;fillColor=#000000;" parent="1" vertex="1">
          <mxGeometry x="560" y="360" width="10" height="10" as="geometry" />
        </mxCell>
        <mxCell id="PjvNSQIgc9dSUxO6gESV-12" value="" style="ellipse;whiteSpace=wrap;html=1;aspect=fixed;fontColor=#333333;rotation=-180;fillColor=#000000;" parent="1" vertex="1">
          <mxGeometry x="600" y="320" width="10" height="10" as="geometry" />
        </mxCell>
        <mxCell id="PjvNSQIgc9dSUxO6gESV-13" value="" style="ellipse;whiteSpace=wrap;html=1;aspect=fixed;fontColor=#333333;fillColor=#000000;" parent="1" vertex="1">
          <mxGeometry x="560" y="280" width="10" height="10" as="geometry" />
        </mxCell>
        <mxCell id="PjvNSQIgc9dSUxO6gESV-14" value="" style="endArrow=none;html=1;entryX=1;entryY=0.5;entryDx=0;entryDy=0;exitX=1;exitY=0.5;exitDx=0;exitDy=0;" parent="1" source="PjvNSQIgc9dSUxO6gESV-12" target="PjvNSQIgc9dSUxO6gESV-1" edge="1">
          <mxGeometry width="50" height="50" relative="1" as="geometry">
            <mxPoint x="600" y="325" as="sourcePoint" />
            <mxPoint x="578.5355339059467" y="331.46446609405325" as="targetPoint" />
          </mxGeometry>
        </mxCell>
        <mxCell id="PjvNSQIgc9dSUxO6gESV-15" value="" style="endArrow=none;html=1;exitX=0.5;exitY=0;exitDx=0;exitDy=0;entryX=0.5;entryY=1;entryDx=0;entryDy=0;" parent="1" source="PjvNSQIgc9dSUxO6gESV-11" target="PjvNSQIgc9dSUxO6gESV-1" edge="1">
          <mxGeometry width="50" height="50" relative="1" as="geometry">
            <mxPoint x="578.9999999999948" y="350" as="sourcePoint" />
            <mxPoint x="551.0000000000052" y="350" as="targetPoint" />
          </mxGeometry>
        </mxCell>
        <mxCell id="PjvNSQIgc9dSUxO6gESV-16" value="" style="endArrow=none;html=1;exitX=1;exitY=0.5;exitDx=0;exitDy=0;entryX=0;entryY=0.5;entryDx=0;entryDy=0;" parent="1" source="PjvNSQIgc9dSUxO6gESV-10" target="PjvNSQIgc9dSUxO6gESV-1" edge="1">
          <mxGeometry width="50" height="50" relative="1" as="geometry">
            <mxPoint x="575" y="370" as="sourcePoint" />
            <mxPoint x="575" y="340" as="targetPoint" />
          </mxGeometry>
        </mxCell>
        <mxCell id="PjvNSQIgc9dSUxO6gESV-17" value="" style="endArrow=none;html=1;exitX=0.5;exitY=1;exitDx=0;exitDy=0;entryX=0.5;entryY=0;entryDx=0;entryDy=0;" parent="1" source="PjvNSQIgc9dSUxO6gESV-13" target="PjvNSQIgc9dSUxO6gESV-1" edge="1">
          <mxGeometry width="50" height="50" relative="1" as="geometry">
            <mxPoint x="539.9999999999978" y="335" as="sourcePoint" />
            <mxPoint x="569.9999999999949" y="335" as="targetPoint" />
          </mxGeometry>
        </mxCell>
        <mxCell id="70jI72inMvGkDjw3Hoce-1" value="" style="ellipse;whiteSpace=wrap;html=1;aspect=fixed;fontColor=#333333;fillColor=none;dashed=1;dashPattern=1 2;rotation=135;direction=south;" vertex="1" parent="1">
          <mxGeometry x="590" y="350" width="10" height="10" as="geometry" />
        </mxCell>
        <mxCell id="70jI72inMvGkDjw3Hoce-2" value="" style="endArrow=none;html=1;exitX=1;exitY=0.5;exitDx=0;exitDy=0;entryX=1;entryY=1;entryDx=0;entryDy=0;dashed=1;dashPattern=1 2;" edge="1" parent="1" source="70jI72inMvGkDjw3Hoce-1" target="PjvNSQIgc9dSUxO6gESV-1">
          <mxGeometry width="50" height="50" relative="1" as="geometry">
            <mxPoint x="575" y="369.99999999999994" as="sourcePoint" />
            <mxPoint x="575" y="340" as="targetPoint" />
          </mxGeometry>
        </mxCell>
      </root>
    </mxGraphModel>
  </diagram>
</mxfile>
